<svg
	version="1.1"
	xmlns="http://www.w3.org/2000/svg"
	xmlns:xlink="http://www.w3.org/1999/xlink"
	viewBox="0 0 550 470"
>
	<g
		fill="#126da9"
		fill-rule="nonzero"
		stroke="none"
		stroke-width="1"
		stroke-linecap="butt"
		stroke-linejoin="miter"
		stroke-miterlimit="10"
		stroke-dasharray=""
		stroke-dashoffset="0"
		font-family="none"
		font-weight="none"
		font-size="none"
		text-anchor="none"
		style="mix-blend-mode: normal"
	>
		<g>
			<g id="element-id-88277">
				<path
					d="M151.48888,331.17784v0c1.8869,0 3.7345,-0.4619 5.54278,-1.38569c1.80828,-0.9238 3.29225,-2.16208 4.45191,-3.71484c1.15966,-1.55276 1.73949,-3.29225 1.73949,-5.21847h1.47414l-1.47414,13.26729h-1.47414h-38.26877v-1.47414v0c1.57242,0 2.94829,-0.79604 4.1276,-2.38811c1.17931,-1.59208 1.76897,-3.17432 1.76897,-4.74674v-32.84392c0,-1.57242 -0.58966,-3.15467 -1.76897,-4.74674c-1.17931,-1.59208 -2.55518,-2.38811 -4.1276,-2.38811v0c0,0 -0.00983,0.00983 -0.02948,0.02948c-0.01966,0.01966 -0.01966,0.02948 0,0.02948c0.01966,0 0.02948,0 0.02948,0v0c0,0 0,-0.01966 0,-0.05897v-1.47414h38.26877h1.47414l1.47414,13.26729h-1.47414c0,-1.8869 -0.57983,-3.61657 -1.73949,-5.18899c-1.15966,-1.57242 -2.64363,-2.82053 -4.45191,-3.74432c-1.80828,-0.9238 -3.65588,-1.38569 -5.54278,-1.38569h-10.319v20.63801v0c1.37587,0 2.9876,-0.04914 4.83519,-0.14741c1.84759,-0.09828 3.62639,-0.36362 5.3364,-0.79604c1.71001,-0.43242 3.13501,-1.14983 4.27502,-2.15225c1.14,-1.00242 1.71001,-2.42742 1.71001,-4.27502h1.47414v1.47414v14.68247v1.47414h-1.47414c0,-1.80828 -0.57,-3.22346 -1.71001,-4.24553c-1.14,-1.02207 -2.56501,-1.74932 -4.27502,-2.18173c-1.71001,-0.43242 -3.48881,-0.68793 -5.3364,-0.76655c-1.84759,-0.07862 -3.45932,-0.11793 -4.83519,-0.11793v0v20.57904z"
					fill="#126da9"
					id="element-id-62985"
				></path>
				<path
					d="M201.43287,328.99611v0c0,0.66828 0.31448,1.4938 0.94345,2.47656c0.62897,0.98276 1.27759,1.47414 1.94587,1.47414v1.47414h-2.88932c-2.2407,0 -4.37329,-0.50121 -6.39778,-1.50363c-2.02449,-1.00242 -3.33156,-1.97535 -3.92122,-2.9188l-5.89657,4.42243h-4.42243c-4.32415,0 -7.85227,-1.53311 -10.58435,-4.59933c-2.73208,-3.06622 -4.09812,-6.7614 -4.09812,-11.08556v-5.48381c0,-4.32415 1.52328,-8.00951 4.56984,-11.05608c3.04656,-3.04656 6.73192,-4.56984 11.05608,-4.56984h0.47173c2.90898,0 5.38554,1.04173 7.42968,3.12518v-3.12518v-1.47414v-2.94829v-0.76655c0,-0.3931 -0.15724,-0.87466 -0.47173,-1.44466c-0.31448,-0.57 -0.70759,-1.08104 -1.17931,-1.53311c-0.47173,-0.45207 -0.90414,-0.67811 -1.29725,-0.67811v-1.47414l2.18173,-0.41276c3.45932,-0.70759 6.66313,-2.04415 9.61142,-4.00967h2.94829v10.319v2.94829v1.47414v5.89657zM189.63972,327.05024v0v-20.63801c0,-0.70759 -0.09828,-1.27759 -0.29483,-1.71001c-0.19655,-0.43242 -0.58966,-0.82552 -1.17931,-1.17931c-2.35863,-1.33656 -4.66812,-1.16949 -6.92847,0.50121c-2.26035,1.6707 -3.39053,3.74432 -3.39053,6.22089v9.43452c0,1.96552 0.41276,3.60674 1.23828,4.92364c0.82552,1.3169 1.80828,2.29966 2.94829,2.94829c1.14,0.64862 2.20139,0.97293 3.18415,0.97293c1.10069,0 1.9557,-0.04914 2.56501,-0.14741c0.60931,-0.09828 1.04173,-0.22604 1.29725,-0.38328c0.25552,-0.15724 0.41276,-0.32431 0.47173,-0.50121c0.05897,-0.1769 0.08845,-0.32431 0.08845,-0.44224z"
					fill="#126da9"
					id="element-id-56349"
				></path>
				<path
					d="M241.41164,320.56401v0c0,1.41518 0.40293,2.67311 1.2088,3.77381c0.80587,1.10069 1.87708,1.8869 3.21363,2.35863v1.47414l-1.59208,0.29483c-4.79588,0.82552 -9.15935,2.69277 -13.09039,5.60175h-1.47414v-5.95554c-1.80828,1.69035 -3.79346,3.10553 -5.95554,4.24553c-2.16208,1.14 -4.73691,1.71001 -7.72451,1.71001c-2.39794,-0.07862 -4.40278,-0.95328 -6.01451,-2.62398c-1.61173,-1.6707 -2.4176,-3.6657 -2.4176,-5.98502v-20.57904c0,-1.37587 -0.40293,-2.62398 -1.2088,-3.74432c-0.80587,-1.12035 -1.87708,-1.91639 -3.21363,-2.38811v-1.47414h16.21558v7.60658v4.18657v14.44661c0,0.94345 0.30466,1.93604 0.91397,2.97777c0.60931,1.04173 1.6707,1.47414 3.18415,1.29725c1.51345,-0.1769 3.58708,-1.46432 6.22089,-3.86226v-19.04593c0,-1.37587 -0.40293,-2.62398 -1.2088,-3.74432c-0.80587,-1.12035 -1.87708,-1.91639 -3.21363,-2.38811v-1.47414h16.15661v7.60658v5.66071z"
					fill="#126da9"
					id="element-id-44200"
				></path>
				<path
					d="M279.79834,293.2039v0c1.21863,0 2.26035,0.45207 3.12518,1.35621c0.86483,0.90414 1.29725,1.98518 1.29725,3.24312c0,1.29725 -0.43242,2.39794 -1.29725,3.30208c-0.86483,0.90414 -1.90656,1.35621 -3.12518,1.35621c-1.53311,0 -2.75173,-0.68793 -3.65588,-2.0638v0v0c-0.86483,-1.14 -1.14,-2.6338 -0.82552,-4.4814c-0.70759,1.57242 -0.84518,3.04656 -0.41276,4.42243c-0.3931,0.07862 -0.72724,0.27517 -1.00242,0.58966l-0.47173,0.41276c3.26277,2.79105 4.89416,6.25037 4.89416,10.37797c0,2.55518 -0.6388,4.8745 -1.91639,6.95796c-1.27759,2.08346 -3.12518,3.75415 -5.54278,5.01209c-2.4176,1.25794 -5.3364,1.8869 -8.75641,1.8869c-2.55518,0 -4.85485,-0.37345 -6.89899,-1.12035v0c0,0.03931 0,0.05897 0,0.05897l-1.23828,-0.58966c-0.19655,0.27517 -0.35379,0.54052 -0.47173,0.79604c-0.11793,0.25552 -0.18672,0.4619 -0.20638,0.61914c-0.01966,0.15724 -0.02948,0.23586 -0.02948,0.23586c0,0.47173 0.1081,1.01225 0.32431,1.62156c0.21621,0.60931 0.75673,1.13018 1.62156,1.56259c0.86483,0.43242 2.28001,0.64862 4.24553,0.64862c5.89657,0 10.29935,0.57 13.20833,1.71001c2.90898,1.14 4.83519,2.60432 5.77864,4.39295c0.94345,1.78863 1.39552,3.68536 1.35621,5.69019c0,2.55518 -0.57,4.8745 -1.71001,6.95796c-1.14,2.08346 -2.9876,3.74432 -5.54278,4.98261c-2.55518,1.23828 -6.03416,1.85742 -10.43694,1.85742h-4.42243c-4.40278,0 -7.72451,-0.87466 -9.96521,-2.62398c-2.2407,-1.74932 -3.32174,-3.90157 -3.24312,-6.45675c0.35379,-4.4814 3.02691,-7.23313 8.01934,-8.2552c-0.03931,-0.03931 -0.08845,-0.06879 -0.14741,-0.08845c-0.05897,-0.01966 -0.12776,-0.04914 -0.20638,-0.08845c-0.07862,-0.03931 -0.14741,-0.06879 -0.20638,-0.08845c-0.05897,-0.01966 -0.1081,-0.02948 -0.14741,-0.02948c-2.86967,-1.96552 -4.32415,-4.44209 -4.36346,-7.42968c0.11793,-3.97036 1.27759,-6.58451 3.47898,-7.84244c-3.30208,-2.79105 -4.95312,-6.25037 -4.95312,-10.37797c0,-2.55518 0.62897,-4.88433 1.8869,-6.98744c1.25794,-2.10311 3.0957,-3.78364 5.5133,-5.04157c2.4176,-1.25794 5.3364,-1.8869 8.75641,-1.8869c3.7345,0 6.85968,0.7469 9.37555,2.2407c0.62897,-1.84759 1.6707,-3.4495 3.12518,-4.80571c1.45449,-1.35621 3.18415,-2.03432 5.18899,-2.03432zM256.74273,339.49201v0c-1.45449,0.23586 -2.64363,0.82552 -3.56743,1.76897c-0.9238,0.94345 -1.38569,2.31932 -1.38569,4.1276v0.47173c0,1.65104 0.73707,3.0957 2.21122,4.33398c1.47414,1.23828 3.68536,1.85742 6.63365,1.85742c2.94829,0 5.2283,-0.20638 6.84003,-0.61914c1.61173,-0.41276 2.77139,-0.94345 3.47898,-1.59208c0.70759,-0.64862 1.13018,-1.34638 1.26776,-2.09328c0.13759,-0.7469 0.20638,-1.43483 0.20638,-2.0638c0,-1.4938 -0.78621,-2.86967 -2.35863,-4.1276c-1.57242,-1.25794 -3.45932,-1.8869 -5.66071,-1.8869c0,0 -0.01966,0 -0.05897,0c-0.03931,0 -0.09828,-0.00983 -0.1769,-0.02948c-0.07862,-0.01966 -0.20638,-0.02948 -0.38328,-0.02948c-0.1769,0 -0.40293,0 -0.67811,0c-0.27517,0 -0.59949,-0.00983 -0.97293,-0.02948c-0.37345,-0.01966 -0.82552,-0.02948 -1.35621,-0.02948c-0.53069,0 -1.13018,-0.00983 -1.79846,-0.02948c-0.66828,-0.01966 -1.41518,-0.02948 -2.2407,-0.02948zM266.53105,312.3088v0v-1.47414c0,-1.53311 -0.09828,-3.11536 -0.29483,-4.74674c-0.19655,-1.63139 -0.59949,-3.01708 -1.2088,-4.15708c-0.60931,-1.14 -1.58225,-1.71001 -2.9188,-1.71001c-1.29725,0 -2.26035,0.57 -2.88932,1.71001c-0.62897,1.14 -1.04173,2.5257 -1.23828,4.15708c-0.19655,1.63139 -0.29483,3.21363 -0.29483,4.74674v1.47414c0,1.57242 0.08845,3.19398 0.26535,4.86467c0.1769,1.6707 0.57983,3.0957 1.2088,4.27502c0.62897,1.17931 1.61173,1.76897 2.94829,1.76897c1.33656,0 2.31932,-0.58966 2.94829,-1.76897c0.62897,-1.17931 1.0319,-2.60432 1.2088,-4.27502c0.1769,-1.6707 0.26535,-3.29225 0.26535,-4.86467z"
					fill="#126da9"
					id="element-id-23390"
				></path>
				<path
					d="M324.02264,320.56401v0c0,1.41518 0.40293,2.67311 1.2088,3.77381c0.80587,1.10069 1.87708,1.8869 3.21363,2.35863v1.47414l-1.59208,0.29483c-4.79588,0.82552 -9.15935,2.69277 -13.09039,5.60175h-1.47414v-5.95554c-1.80828,1.69035 -3.79346,3.10553 -5.95554,4.24553c-2.16208,1.14 -4.73691,1.71001 -7.72451,1.71001c-2.39794,-0.07862 -4.40278,-0.95328 -6.01451,-2.62398c-1.61173,-1.6707 -2.4176,-3.6657 -2.4176,-5.98502v-20.57904c0,-1.37587 -0.40293,-2.62398 -1.2088,-3.74432c-0.80587,-1.12035 -1.87708,-1.91639 -3.21363,-2.38811v-1.47414h16.21558v7.60658v4.18657v14.44661c0,0.94345 0.30466,1.93604 0.91397,2.97777c0.60931,1.04173 1.6707,1.47414 3.18415,1.29725c1.51345,-0.1769 3.58708,-1.46432 6.22089,-3.86226v-19.04593c0,-1.37587 -0.40293,-2.62398 -1.2088,-3.74432c-0.80587,-1.12035 -1.87708,-1.91639 -3.21363,-2.38811v-1.47414h16.15661v7.60658v5.66071z"
					fill="#126da9"
					id="element-id-98949"
				></path>
				<path
					d="M348.1986,325.2223v0c0,1.76897 0.54052,3.35122 1.62156,4.74674c1.08104,1.39552 2.50604,2.32915 4.27502,2.80087v1.47414h-5.89657h-11.73418h-5.89657v-1.47414c1.76897,-0.47173 3.19398,-1.40535 4.27502,-2.80087c1.08104,-1.39552 1.62156,-2.97777 1.62156,-4.74674v-8.66796v-1.47414v-1.65104v-2.77139c0,-1.61173 -0.33414,-2.99743 -1.00242,-4.15708c-0.66828,-1.15966 -1.80828,-1.73949 -3.42001,-1.73949v-1.35621l-0.11793,-0.05897c6.32899,-2.12277 10.75142,-4.3045 13.26729,-6.5452c2.51587,-2.2407 3.78364,-4.36346 3.80329,-6.3683c0.01966,-2.00484 -0.54052,-3.71484 -1.68052,-5.13002c0.43242,1.06138 0.58966,2.05397 0.47173,2.97777c-0.11793,0.9238 -0.3931,1.73949 -0.82552,2.44708c-0.03931,0.03931 -0.05897,0.07862 -0.05897,0.11793c-0.03931,0 -0.07862,0.01966 -0.11793,0.05897c0,0 0,0.01966 0,0.05897c-0.11793,0.15724 -0.25552,0.29483 -0.41276,0.41276c-0.19655,0.19655 -0.41276,0.3931 -0.64862,0.58966c-0.07862,0.03931 -0.1769,0.07862 -0.29483,0.11793c-0.03931,0.03931 -0.07862,0.05897 -0.11793,0.05897c-0.15724,0.11793 -0.33414,0.21621 -0.53069,0.29483c-0.11793,0.07862 -0.23586,0.13759 -0.35379,0.1769c-0.23586,0.07862 -0.47173,0.15724 -0.70759,0.23586c0,0 -0.01966,0 -0.05897,0c-0.07862,0.03931 -0.15724,0.05897 -0.23586,0.05897c-0.35379,0.07862 -0.70759,0.11793 -1.06138,0.11793c-0.43242,0 -0.84518,-0.03931 -1.23828,-0.11793c-0.7469,-0.15724 -1.43483,-0.45207 -2.0638,-0.88449c-0.31448,-0.23586 -0.60931,-0.47173 -0.88449,-0.70759c-0.55035,-0.55035 -0.96311,-1.17931 -1.23828,-1.8869c-0.31448,-0.70759 -0.47173,-1.47414 -0.47173,-2.29966c0,-0.3931 0.03931,-0.78621 0.11793,-1.17931c0,-0.11793 0.01966,-0.23586 0.05897,-0.35379c0.03931,-0.07862 0.05897,-0.13759 0.05897,-0.1769c0.03931,-0.07862 0.05897,-0.13759 0.05897,-0.1769c0.03931,-0.15724 0.07862,-0.29483 0.11793,-0.41276c0.11793,-0.23586 0.25552,-0.47173 0.41276,-0.70759v0c0.03931,-0.03931 0.05897,-0.07862 0.05897,-0.11793c0.03931,-0.03931 0.05897,-0.07862 0.05897,-0.11793c0.19655,-0.31448 0.43242,-0.58966 0.70759,-0.82552c0,0 0,-0.01966 0,-0.05897v0c1.10069,-1.10069 2.47656,-1.69035 4.1276,-1.76897v0v0v0c0.03931,0 0.05897,0 0.05897,0v0c0,0 0.01966,0 0.05897,0c0.55035,0 1.08104,0.07862 1.59208,0.23586c0.03931,0.03931 0.07862,0.05897 0.11793,0.05897v0c0.27517,0.07862 0.53069,0.1769 0.76655,0.29483c1.57242,0.66828 2.96794,1.81811 4.18657,3.4495c1.21863,1.63139 1.85742,3.70501 1.91639,6.22089c0.05897,2.51587 -0.855,5.42485 -2.74191,8.72693v13.20833v1.65104v1.47414z"
					fill="#126da9"
					id="element-id-74050"
				></path>
				<path
					d="M391.24359,328.99611v0c0,0.66828 0.31448,1.4938 0.94345,2.47656c0.62897,0.98276 1.27759,1.47414 1.94587,1.47414v1.47414h-2.88932c-2.2407,0 -4.37329,-0.50121 -6.39778,-1.50363c-2.02449,-1.00242 -3.33156,-1.97535 -3.92122,-2.9188l-5.89657,4.42243h-4.42243c-4.32415,0 -7.85227,-1.53311 -10.58435,-4.59933c-2.73208,-3.06622 -4.09812,-6.7614 -4.09812,-11.08556v-5.48381c0,-4.32415 1.52328,-8.00951 4.56984,-11.05608c3.04656,-3.04656 6.73192,-4.56984 11.05608,-4.56984h0.47173c2.90898,0 5.38554,1.04173 7.42968,3.12518v-3.12518v-1.47414v-2.94829v-0.76655c0,-0.3931 -0.15724,-0.87466 -0.47173,-1.44466c-0.31448,-0.57 -0.70759,-1.08104 -1.17931,-1.53311c-0.47173,-0.45207 -0.90414,-0.67811 -1.29725,-0.67811v-1.47414l2.18173,-0.41276c3.45932,-0.70759 6.66313,-2.04415 9.61142,-4.00967h2.94829v10.319v2.94829v1.47414v5.89657zM379.45044,327.05024v0v-20.63801c0,-0.70759 -0.09828,-1.27759 -0.29483,-1.71001c-0.19655,-0.43242 -0.58966,-0.82552 -1.17931,-1.17931c-2.35863,-1.33656 -4.66812,-1.16949 -6.92847,0.50121c-2.26035,1.6707 -3.39053,3.74432 -3.39053,6.22089v9.43452c0,1.96552 0.41276,3.60674 1.23828,4.92364c0.82552,1.3169 1.80828,2.29966 2.94829,2.94829c1.14,0.64862 2.20139,0.97293 3.18415,0.97293c1.10069,0 1.9557,-0.04914 2.56501,-0.14741c0.60931,-0.09828 1.04173,-0.22604 1.29725,-0.38328c0.25552,-0.15724 0.41276,-0.32431 0.47173,-0.50121c0.05897,-0.1769 0.08845,-0.32431 0.08845,-0.44224z"
					fill="#126da9"
					id="element-id-69128"
				></path>
				<path
					d="M426.56407,318.20538v0h-22.05319v0c0.78621,4.36346 2.21122,7.33141 4.27502,8.90383c2.0638,1.57242 4.55019,2.18173 7.45917,1.82794v0c1.37587,-0.07862 2.83036,-0.60931 4.36346,-1.59208c1.53311,-0.98276 3.04656,-2.55518 4.54036,-4.71726v0h1.41518v0c-1.37587,4.36346 -3.29225,7.41986 -5.74916,9.16917c-2.45691,1.74932 -5.92606,2.62398 -10.40745,2.62398h-0.94345c-4.59933,0 -8.5402,-1.66087 -11.82263,-4.98261c-3.28243,-3.32174 -4.92364,-7.55744 -4.92364,-12.70712v-1.47414c0,-5.14967 1.64121,-9.37555 4.92364,-12.67763c3.28243,-3.30208 7.2233,-4.95312 11.82263,-4.95312h0.94345c4.4814,0 8.29451,1.58225 11.43935,4.74674c3.14484,3.16449 4.71726,6.96779 4.71726,11.40987zM416.30403,307.88637v0c0,-2.20139 -0.36362,-3.72467 -1.09087,-4.56984c-0.72724,-0.84518 -1.6019,-1.26776 -2.62398,-1.26776h-0.70759c-1.8869,0 -3.58708,1.28742 -5.10054,3.86226c-1.51345,2.57484 -2.27018,5.69019 -2.27018,9.34607v0h9.49348c0.62897,0 1.16949,-0.21621 1.62156,-0.64862c0.45207,-0.43242 0.67811,-0.96311 0.67811,-1.59208z"
					fill="#126da9"
					id="element-id-41886"
				></path>
			</g>
			<g
				id="element-id-30996"
			>
				<path
					d="M215.05284,182.46465c0,-33.10793 26.83928,-59.94721 59.94721,-59.94721c33.10793,0 59.94721,26.83928 59.94721,59.94721c0,33.10793 -26.83928,59.94721 -59.94721,59.94721c-33.10793,0 -59.94721,-26.83928 -59.94721,-59.94721zM286.32924,197.30904v-31.53953c3.64356,-6.37622 5.40839,-11.99338 5.29454,-16.85145c-0.11387,-4.85808 -1.34736,-8.8622 -3.70049,-12.01234c-2.35314,-3.15015 -5.04785,-5.37044 -8.08415,-6.66086c-0.45545,-0.22773 -0.94884,-0.41749 -1.4802,-0.56931c-0.0759,0 -0.15182,-0.03795 -0.22773,-0.11385c-0.98679,-0.30363 -2.01154,-0.45545 -3.07425,-0.45545c-0.0759,0 -0.11385,0 -0.11385,0c0,0 -0.03795,0 -0.11385,0c-3.1881,0.1518 -5.84486,1.29042 -7.97027,3.41583c0,0.0759 0,0.11385 0,0.11385c-0.53136,0.45543 -0.98681,0.98679 -1.36634,1.59405c0,0.07592 -0.03795,0.15182 -0.11385,0.22773c0,0.07592 -0.03795,0.15182 -0.11385,0.22773c-0.30363,0.45543 -0.56931,0.91089 -0.79704,1.36632c-0.0759,0.22773 -0.15182,0.4934 -0.22773,0.79704c0,0.0759 -0.03795,0.18978 -0.11385,0.34158c0,0.0759 -0.03795,0.18978 -0.11385,0.34158c-0.0759,0.22773 -0.11385,0.45543 -0.11385,0.68316c-0.15182,0.75907 -0.22773,1.51815 -0.22773,2.27721c0,1.59407 0.30363,3.07427 0.91089,4.44059c0.53136,1.36634 1.32839,2.58086 2.39109,3.64356c0.53136,0.45543 1.10067,0.91089 1.70792,1.36632c1.21452,0.83498 2.54289,1.40429 3.98514,1.70792c0.75909,0.15182 1.5561,0.22773 2.39109,0.22773c0.68318,0 1.36634,-0.0759 2.0495,-0.22773c0.1518,0 0.30363,-0.03795 0.45543,-0.11385c0.0759,0 0.11385,0 0.11385,0c0.45543,-0.15182 0.91089,-0.30363 1.36632,-0.45545c0.22773,-0.0759 0.45543,-0.18976 0.68316,-0.34158c0.37953,-0.15182 0.72111,-0.34158 1.02474,-0.56931c0.07592,0 0.15182,-0.03795 0.22773,-0.11385c0.22773,-0.0759 0.41751,-0.15182 0.56931,-0.22773c0.45543,-0.37953 0.87294,-0.75909 1.25247,-1.13862c0.30363,-0.22773 0.56931,-0.4934 0.79704,-0.79704c0,-0.0759 0,-0.11385 0,-0.11385c0.07592,-0.0759 0.15182,-0.11385 0.22773,-0.11385c0,-0.0759 0.03795,-0.15182 0.11385,-0.22773c0.83498,-1.36632 1.36632,-2.94141 1.59405,-4.72523c0.22773,-1.78381 -0.0759,-3.70048 -0.91089,-5.74997c2.20131,2.73267 3.28299,6.03464 3.24503,9.90592c-0.03795,3.87126 -2.48597,7.97027 -7.34404,12.29699c-4.85808,4.32674 -13.39765,8.5396 -25.61874,12.63859l0.22773,0.11385v2.61881c3.11222,0 5.31353,1.11965 6.60395,3.35891c1.29042,2.23926 1.93563,4.91501 1.93563,8.02721v28.12368c0,3.41585 -1.04373,6.47111 -3.13118,9.16582c-2.08745,2.69472 -4.8391,4.4975 -8.25493,5.40839v2.84652h45.43055v-2.84652c-3.41585,-0.91089 -6.16748,-2.71368 -8.25493,-5.40839c-2.08745,-2.69472 -3.13118,-5.74999 -3.13118,-9.16582zM342.45204,183.79368l-0.01585,0.67384l-0.02238,0.67384l-0.02938,0.67384l-0.03544,0.67337l-0.04244,0.67291l-0.04897,0.67244l-0.05549,0.67244l-0.06202,0.6715l-0.06902,0.6715l-0.07555,0.67011l-0.08254,0.66964l-0.08953,0.66918l-0.0956,0.66777l-0.10306,0.66684l-0.10958,0.66591l-0.11611,0.66498l-0.12311,0.66358l-0.12964,0.66265l-0.13663,0.66078l-0.14363,0.65985l-0.15016,0.65798l-0.15669,0.65658l-0.16321,0.65472l-0.17021,0.65332l-0.17674,0.65145l-0.18373,0.64913l-0.18979,0.64772l-0.19679,0.64586l-0.20285,0.64353l-0.20984,0.64119l-0.21591,0.63933l-0.22244,0.637l-0.2285,0.63467l-0.23503,0.63233l-0.24109,0.63001l-0.24762,0.62721l-0.25322,0.62487l-0.25974,0.62254l-0.15296,0.3586l-0.26767,0.61508l-0.27513,0.61555l-0.28073,0.61321l-0.28726,0.60995l-0.29332,0.60762l-0.29938,0.60436l-0.30497,0.60156l-0.3115,0.59876l-0.31756,0.59503l-0.32316,0.59223l-0.32922,0.58897l-0.33529,0.5857l-0.34135,0.58244l-0.34694,0.57871l-0.35301,0.57544l-0.35907,0.57124l-0.36467,0.56798l-0.37026,0.56425l-0.37586,0.56052l-0.38192,0.55679l-0.38752,0.55259l-0.39311,0.54839l-0.39824,0.54466l-0.4043,0.54047l-0.40943,0.53674l-0.41456,0.53207l-0.42016,0.52788l-0.42576,0.52368l-0.43042,0.51949l-0.43555,0.51482l-0.44115,0.51063l-0.44581,0.50642l-0.45047,0.50176l-0.4556,0.4971l-0.46026,0.49244l-0.46493,0.48824l-0.47005,0.48358l-0.47425,0.47891l-0.27607,0.27466l-0.47891,0.46959l-0.48591,0.46679l-0.49057,0.46259l-0.49524,0.45746l-0.49943,0.45327l-0.50456,0.44767l-0.50829,0.44301l-0.51295,0.43788l-0.51762,0.43321l-0.52181,0.42762l-0.52602,0.42249l-0.53021,0.41736l-0.53441,0.41176l-0.5386,0.40616l-0.5428,0.40104l-0.547,0.39544l-0.55073,0.39031l-0.55492,0.38425l-0.55866,0.37865l-0.56239,0.37306l-0.56612,0.36699l-0.57031,0.3614l-0.57358,0.3558l-0.57684,0.34974l-0.58104,0.34368l-0.58384,0.33809l-0.58757,0.33202l-0.59083,0.32596l-0.59409,0.32036l-0.59689,0.31383l-0.60063,0.30824l-0.60296,0.30217l-0.60622,0.29565l-0.60902,0.29005l-0.61182,0.28399l-0.61462,0.27793l-0.61694,0.2714l-0.61974,0.2658l-0.61228,0.25554l-0.62441,0.25368l-0.62721,0.24762l-0.63001,0.24156l-0.63187,0.23503l-0.63467,0.22896l-0.63691,0.2229l-0.63914,0.21591l-0.64129,0.20984l-0.64343,0.20332l-0.64548,0.19679l-0.64749,0.19026l-0.64945,0.18373l-0.65122,0.1772l-0.65313,0.17021l-0.65477,0.16368l-0.65645,0.15715l-0.65808,0.15062l-0.65947,0.14363l-0.66097,0.13663l-0.66232,0.13011l-0.66362,0.12358l-0.66484,0.11658l-0.66591,0.10958l-0.66698,0.10306l-0.66796,0.09653l-0.66889,0.08907l-0.66969,0.08301l-0.67043,0.07601l-0.67113,0.06902l-0.67174,0.06249l-0.67225,0.05596l-0.67272,0.04897l-0.67309,0.0429l-0.67342,0.0359l-0.67365,0.02892l-0.67384,0.02285l-0.67393,0.01632l-0.67398,0.0098l-0.67398,0.00327l-0.66306,-0.00327l-0.67379,-0.00932l-0.67384,-0.01585l-0.67374,-0.02238l-0.6736,-0.02938l-0.67333,-0.03544l-0.67304,-0.04244l-0.67267,-0.04897l-0.67221,-0.05549l-0.67174,-0.06202l-0.67109,-0.06902l-0.67043,-0.07555l-0.66969,-0.08254l-0.6688,-0.08953l-0.66801,-0.0956l-0.66698,-0.10306l-0.66601,-0.10958l-0.66479,-0.11611l-0.66362,-0.12311l-0.66241,-0.12964l-0.66097,-0.13663l-0.65962,-0.14363l-0.65808,-0.15016l-0.65649,-0.15669l-0.65491,-0.16321l-0.65318,-0.17021l-0.65136,-0.1772l-0.64954,-0.18327l-0.64758,-0.18979l-0.64562,-0.19679l-0.64354,-0.20285l-0.64142,-0.20984l-0.63925,-0.21591l-0.63701,-0.22244l-0.63468,-0.2285l-0.63233,-0.23503l-0.62991,-0.24109l-0.62743,-0.24762l-0.62489,-0.25322l-0.62232,-0.25974l-0.35844,-0.15249l-0.61519,-0.26814l-0.61559,-0.27466l-0.61295,-0.28119l-0.61017,-0.28726l-0.60743,-0.29332l-0.6045,-0.29938l-0.60156,-0.30544l-0.59853,-0.31104l-0.5954,-0.31756l-0.59219,-0.32316l-0.58897,-0.32922l-0.58565,-0.33529l-0.58221,-0.34135l-0.5788,-0.34694l-0.57521,-0.35301l-0.57162,-0.35907l-0.56794,-0.36467l-0.56425,-0.37026l-0.56038,-0.37586l-0.55656,-0.38192l-0.55264,-0.38752l-0.54868,-0.39311l-0.54462,-0.39824l-0.54056,-0.4043l-0.53636,-0.40943l-0.53226,-0.41503l-0.52797,-0.41969l-0.52368,-0.42576l-0.51939,-0.43042l-0.51505,-0.43555l-0.51063,-0.44115l-0.50615,-0.44581l-0.50176,-0.45047l-0.49719,-0.4556l-0.49267,-0.46026l-0.48815,-0.46493l-0.48358,-0.47005l-0.47891,-0.47425l-0.2749,-0.27607l-0.4694,-0.47938l-0.46712,-0.48591l-0.4624,-0.49057l-0.45765,-0.49524l-0.45289,-0.49943l-0.44791,-0.5041l-0.44301,-0.50876l-0.43797,-0.51295l-0.43289,-0.51762l-0.42767,-0.52135l-0.42249,-0.52602l-0.41722,-0.53068l-0.41186,-0.53441l-0.4065,-0.5386l-0.40099,-0.5428l-0.39549,-0.547l-0.38994,-0.55073l-0.38435,-0.55492l-0.37865,-0.55866l-0.37297,-0.56239l-0.36723,-0.56612l-0.36145,-0.56985l-0.35562,-0.57404l-0.34974,-0.57684l-0.34392,-0.58104l-0.33794,-0.58384l-0.33202,-0.58757l-0.32605,-0.59083l-0.32009,-0.59409l-0.31407,-0.59689l-0.30805,-0.60063l-0.30204,-0.60296l-0.29597,-0.60622l-0.28992,-0.60902l-0.2839,-0.61182l-0.27779,-0.61462l-0.27177,-0.61694l-0.26571,-0.61974l-0.25554,-0.61182l-0.25368,-0.62487l-0.24757,-0.62721l-0.24142,-0.62953l-0.23522,-0.63233l-0.22892,-0.63467l-0.22257,-0.63653l-0.21619,-0.63933l-0.2098,-0.64119l-0.20332,-0.64353l-0.19679,-0.64539l-0.19026,-0.64772l-0.18369,-0.64913l-0.17706,-0.65145l-0.17044,-0.65285l-0.16377,-0.65518l-0.15706,-0.65611l-0.15035,-0.65798l-0.14363,-0.65985l-0.13687,-0.66078l-0.13011,-0.66218l-0.12339,-0.66358l-0.11658,-0.66498l-0.10977,-0.66591l-0.10301,-0.66731l-0.09625,-0.66777l-0.08949,-0.66871l-0.08273,-0.66964l-0.07597,-0.67057l-0.06925,-0.67104l-0.06253,-0.67197l-0.05582,-0.67197l-0.04915,-0.67291l-0.04253,-0.67291l-0.03586,-0.67384l-0.02929,-0.67337l-0.02276,-0.67384l-0.01623,-0.67384l-0.0097,-0.6743l-0.00331,-0.67384l0.00303,-0.66311l0.00951,-0.67384l0.01595,-0.67384l0.02248,-0.67337l0.02905,-0.67384l0.03558,-0.67337l0.04225,-0.67291l0.04892,-0.67291l0.05554,-0.67197l0.06226,-0.67197l0.06897,-0.67104l0.07568,-0.67011l0.08245,-0.66987l0.08921,-0.66885l0.09597,-0.66796l0.10278,-0.66703l0.1095,-0.66596l0.1163,-0.66484l0.12311,-0.66362l0.12982,-0.66237l0.13659,-0.66097l0.1434,-0.65962l0.15006,-0.65808l0.15678,-0.65654l0.16349,-0.65486l0.17016,-0.65318l0.17683,-0.65136l0.1834,-0.64954l0.19003,-0.64758l0.19656,-0.64562l0.20304,-0.64357l0.20952,-0.64143l0.216,-0.63924l0.22234,-0.637l0.22864,-0.63472l0.23498,-0.63229l0.24118,-0.62991l0.24739,-0.62744l0.25354,-0.62492l0.25956,-0.62231l0.15277,-0.35851l0.26771,-0.61518l0.27509,-0.6156l0.28115,-0.61298l0.28716,-0.61018l0.29322,-0.60739l0.29929,-0.60454l0.3053,-0.60156l0.31136,-0.59848l0.31733,-0.5954l0.32335,-0.59223l0.32932,-0.58897l0.33529,-0.58561l0.34121,-0.58225l0.34713,-0.57875l0.35296,-0.57526l0.35884,-0.57162l0.36462,-0.56794l0.3704,-0.56421l0.37609,-0.56043l0.38178,-0.55656l0.38747,-0.55264l0.39297,-0.54863l0.39857,-0.54466l0.40402,-0.54051l0.40948,-0.53641l0.41484,-0.53222l0.42016,-0.52797l0.42538,-0.52373l0.4306,-0.51934l0.43573,-0.51505l0.44077,-0.51063l0.44576,-0.50615l0.4507,-0.50172l0.4556,-0.49724l0.46031,-0.49267l0.46506,-0.48815l0.46973,-0.48353l0.4743,-0.47896l0.27611,-0.27466l0.47915,-0.46945l0.486,-0.46712l0.49062,-0.4624l0.4951,-0.45769l0.49966,-0.45284l0.5041,-0.44796l0.50857,-0.443l0.513,-0.43797l0.51739,-0.43288l0.52173,-0.42772l0.52606,-0.42249l0.53026,-0.41721l0.5345,-0.41187l0.53865,-0.40647l0.5428,-0.40101l0.54681,-0.3955l0.55087,-0.38994l0.55478,-0.38433l0.55866,-0.37867l0.56253,-0.37297l0.56626,-0.36723l0.56999,-0.36144l0.57363,-0.35563l0.57717,-0.34977l0.58071,-0.34388l0.58412,-0.33796l0.58752,-0.33203l0.59078,-0.32606l0.594,-0.32008l0.59717,-0.31407l0.60025,-0.30805l0.60324,-0.30204l0.60613,-0.29597l0.60903,-0.28992l0.61179,-0.2839l0.61448,-0.27779l0.61711,-0.27177l0.61965,-0.26576l0.61218,-0.25554l0.62462,-0.25368l0.62727,-0.24757l0.62974,-0.24142l0.63218,-0.23522l0.63455,-0.22887l0.63686,-0.22257l0.63911,-0.21623l0.6413,-0.20975l0.64343,-0.20332l0.6455,-0.19679l0.64749,-0.19026l0.6494,-0.18369l0.65131,-0.17706l0.65304,-0.17044l0.65481,-0.16377l0.65645,-0.15706l0.65803,-0.15035l0.65957,-0.14363l0.66092,-0.13687l0.66232,-0.13011l0.66362,-0.12339l0.66479,-0.11653l0.66596,-0.10982l0.66698,-0.10301l0.66796,-0.09625l0.66889,-0.08949l0.66969,-0.08273l0.67043,-0.07597l0.67113,-0.06925l0.67174,-0.06253l0.67225,-0.05582l0.67272,-0.04915l0.67309,-0.04253l0.67342,-0.03586l0.67365,-0.02929l0.67384,-0.02276l0.67393,-0.01623l0.67398,-0.0097l0.67393,-0.00331l0.66316,0.00308l0.67374,0.00947l0.67384,0.01595l0.67374,0.02248l0.6736,0.02905l0.67337,0.03558l0.67304,0.04225l0.67262,0.04892l0.67225,0.05554l0.67169,0.06226l0.67109,0.06897l0.67043,0.07568l0.66969,0.08245l0.66885,0.08921l0.66796,0.09597l0.66703,0.10278l0.66596,0.1095l0.66479,0.1163l0.66367,0.12311l0.66237,0.12982l0.66097,0.13663l0.65962,0.14335l0.65808,0.15006l0.65654,0.15682l0.65486,0.16349l0.65318,0.17016l0.65141,0.17678l0.6495,0.1834l0.64758,0.19003l0.64562,0.19656l0.64357,0.20304l0.64143,0.20957l0.63924,0.21595l0.63704,0.22234l0.63467,0.22869l0.63233,0.23493l0.63001,0.24118l0.62721,0.24739l0.62487,0.25354l0.62254,0.25956l0.35814,0.15272l0.61555,0.26771l0.61555,0.27509l0.61275,0.2811l0.61041,0.28721l0.60716,0.29322l0.60436,0.29929l0.60156,0.3053l0.59876,0.31132l0.5955,0.31737l0.59223,0.32335l0.58897,0.32933l0.5857,0.33528l0.58197,0.34121l0.57871,0.34711l0.57544,0.35299l0.57171,0.35882l0.56798,0.36462l0.56378,0.37039l0.56052,0.37612l0.55679,0.38179l0.55259,0.38742l0.54839,0.39302l0.54466,0.39855l0.54047,0.40404l0.53674,0.40946l0.53207,0.41484l0.52788,0.42015l0.52368,0.42541l0.51949,0.43059l0.51482,0.43573l0.51063,0.44079l0.50642,0.44578l0.50176,0.4507l0.4971,0.45555l0.4929,0.46035l0.48778,0.46506l0.48358,0.46973l0.47891,0.4743l0.27466,0.27611l0.46959,0.4791l0.46725,0.486l0.46213,0.49062l0.45793,0.4951l0.4528,0.49962l0.44767,0.50414l0.44301,0.50857l0.43835,0.513l0.43275,0.51739l0.42762,0.52173l0.42249,0.52602l0.41736,0.5303l0.41176,0.5345l0.40664,0.53865l0.40104,0.54275l0.39544,0.54686l0.38985,0.55082l0.38425,0.55478l0.37865,0.5587l0.37306,0.56248l0.36746,0.56631l0.3614,0.56999l0.35534,0.57358l0.34974,0.57721l0.34414,0.58071l0.33809,0.58412l0.33202,0.58752l0.32596,0.59078l0.3199,0.59405l0.3143,0.59713l0.30777,0.60025l0.30217,0.60324l0.29612,0.60617l0.28959,0.60902l0.28399,0.61182l0.27793,0.61448l0.2714,0.61709l0.2658,0.6197l0.25554,0.61214l0.25368,0.62464l0.24762,0.62725l0.24156,0.62977l0.23503,0.63215l0.22896,0.63453l0.2229,0.63691l0.21591,0.63909l0.20984,0.64129l0.20332,0.64343l0.19679,0.64548l0.19026,0.64749l0.18373,0.64945l0.1772,0.65126l0.17021,0.65309l0.16368,0.65477l0.15715,0.65645l0.15062,0.65803l0.14363,0.65957l0.13663,0.66092l0.13011,0.66232l0.12358,0.66362l0.11658,0.66479l0.10958,0.66596l0.10306,0.66698l0.09653,0.66796l0.08907,0.66889l0.08301,0.6695l0.07601,0.67057l0.06902,0.67104l0.06249,0.67197l0.05596,0.67197l0.04897,0.67291l0.0429,0.67291l0.0359,0.67384l0.02892,0.67337l0.02285,0.67384l0.01632,0.67384l0.0098,0.6743l0.00327,0.67384v0.01492l-0.00327,0.64819zM339.29643,181.82859l-0.00932,-0.64353l-0.01539,-0.64353l-0.02145,-0.64306l-0.02798,-0.64259l-0.03404,-0.64259l-0.0401,-0.64166l-0.04663,-0.64166l-0.05316,-0.64073l-0.05969,-0.64026l-0.06575,-0.63933l-0.07228,-0.63886l-0.07834,-0.63816l-0.08534,-0.63714l-0.0914,-0.63625l-0.09793,-0.63523l-0.10446,-0.63416l-0.11099,-0.63308l-0.11704,-0.63187l-0.12404,-0.63061l-0.13011,-0.62935l-0.13663,-0.62795l-0.14269,-0.62655l-0.14969,-0.62506l-0.15575,-0.62348l-0.16181,-0.62189l-0.16881,-0.62026l-0.1744,-0.61853l-0.1814,-0.61672l-0.187,-0.61494l-0.19352,-0.61303l-0.20005,-0.61107l-0.20565,-0.60911l-0.21218,-0.60701l-0.21824,-0.60496l-0.22383,-0.60286l-0.23037,-0.60058l-0.23596,-0.59843l-0.24202,-0.59624l-0.24342,-0.58416l-0.25368,-0.59139l-0.25881,-0.58883l-0.26487,-0.58621l-0.27093,-0.58351l-0.27607,-0.58076l-0.28212,-0.57792l-0.28772,-0.57507l-0.29332,-0.57209l-0.29938,-0.5691l-0.30451,-0.56602l-0.31057,-0.5629l-0.31617,-0.55968l-0.32177,-0.55646l-0.32736,-0.5531l-0.33295,-0.5498l-0.33855,-0.54634l-0.34414,-0.54285l-0.34928,-0.53931l-0.35534,-0.53576l-0.36047,-0.53212l-0.3656,-0.52844l-0.37119,-0.52471l-0.37679,-0.52088l-0.38192,-0.5171l-0.38705,-0.51324l-0.39218,-0.50932l-0.39731,-0.50531l-0.40243,-0.50139l-0.40757,-0.49734l-0.4127,-0.49332l-0.41736,-0.48922l-0.42249,-0.48507l-0.42715,-0.48092l-0.43181,-0.47677l-0.43648,-0.47252l-0.44161,-0.46833l-0.44581,-0.46408l-0.45233,-0.46213l-0.25788,-0.25932l-0.45746,-0.45294l-0.4612,-0.44851l-0.46586,-0.44394l-0.47005,-0.43932l-0.47425,-0.43471l-0.47845,-0.42995l-0.48218,-0.4252l-0.48684,-0.42035l-0.49104,-0.4154l-0.49477,-0.4105l-0.49897,-0.4055l-0.5027,-0.40043l-0.5069,-0.39532l-0.51109,-0.39017l-0.51482,-0.38495l-0.51855,-0.37972l-0.52229,-0.37442l-0.52648,-0.36908l-0.52975,-0.36371l-0.53347,-0.35829l-0.5372,-0.35284l-0.54093,-0.34736l-0.5442,-0.34184l-0.54793,-0.33631l-0.55073,-0.33073l-0.55492,-0.32513l-0.55772,-0.31952l-0.56099,-0.31388l-0.56425,-0.30823l-0.56705,-0.30255l-0.57031,-0.29687l-0.57358,-0.29117l-0.57591,-0.28546l-0.57917,-0.27975l-0.58197,-0.27404l-0.58477,-0.26832l-0.58757,-0.2626l-0.5927,-0.25817l-0.33622,-0.1433l-0.59363,-0.24781l-0.59596,-0.24193l-0.59829,-0.23605l-0.60063,-0.23013l-0.60277,-0.22416l-0.60487,-0.2181l-0.60697,-0.21203l-0.60907,-0.20588l-0.61097,-0.19977l-0.61298,-0.19357l-0.61489,-0.18737l-0.61667,-0.18112l-0.61848,-0.17478l-0.62021,-0.16853l-0.62184,-0.16219l-0.62352,-0.1558l-0.62501,-0.14945l-0.6265,-0.14307l-0.62795,-0.13663l-0.62935,-0.1302l-0.63065,-0.12381l-0.63187,-0.11733l-0.63308,-0.11094l-0.63416,-0.10446l-0.63528,-0.09802l-0.63625,-0.09158l-0.63718,-0.08511l-0.63807,-0.07872l-0.63886,-0.07233l-0.63961,-0.06585l-0.64031,-0.0595l-0.64092,-0.05316l-0.64152,-0.04677l-0.64199,-0.04043l-0.64245,-0.03414l-0.64278,-0.02784l-0.64315,-0.02159l-0.64343,-0.01539l-0.64371,-0.00919l-0.63322,-0.00303l-0.64371,0.00298l-0.64353,0.00914l-0.6433,0.01534l-0.64306,0.02154l-0.64278,0.0278l-0.64236,0.03409l-0.64189,0.04038l-0.64143,0.04673l-0.64087,0.05307l-0.64026,0.05941l-0.63957,0.06585l-0.63882,0.07223l-0.63802,0.07862l-0.63718,0.08511l-0.63621,0.0915l-0.63523,0.09797l-0.63416,0.10441l-0.63308,0.11084l-0.63187,0.11728l-0.63061,0.12372l-0.62935,0.1302l-0.62795,0.13654l-0.62655,0.14302l-0.62506,0.14936l-0.62352,0.1558l-0.62189,0.16209l-0.62026,0.16848l-0.61848,0.17478l-0.61676,0.18103l-0.61489,0.18732l-0.61303,0.19357l-0.6111,0.19973l-0.60909,0.20588l-0.60705,0.21199l-0.60496,0.21805l-0.60282,0.22412l-0.60063,0.23008l-0.5984,0.23605l-0.59624,0.24198l-0.58408,0.24368l-0.5914,0.25344l-0.58883,0.25916l-0.5862,0.26487l-0.58351,0.27059l-0.58076,0.27631l-0.57793,0.28202l-0.57503,0.28774l-0.57213,0.29344l-0.5691,0.29913l-0.56598,0.30481l-0.5629,0.31048l-0.55973,0.31613l-0.55642,0.32177l-0.55315,0.32738l-0.54975,0.33297l-0.54634,0.33852l-0.54285,0.34406l-0.53935,0.34957l-0.53576,0.35503l-0.53212,0.36048l-0.52844,0.36587l-0.52466,0.37124l-0.52093,0.37656l-0.5171,0.38184l-0.51319,0.38707l-0.50932,0.39227l-0.50535,0.39741l-0.50139,0.40247l-0.49734,0.40757l-0.49332,0.41251l-0.48917,0.41745l-0.48512,0.42235l-0.48092,0.42715l-0.47677,0.43191l-0.47257,0.43662l-0.46833,0.44123l-0.46408,0.44585l-0.46213,0.45261l-0.25932,0.25788l-0.45294,0.45718l-0.44847,0.46152l-0.44394,0.46572l-0.43937,0.47001l-0.43466,0.47416l-0.42995,0.4784l-0.4252,0.48255l-0.42035,0.4867l-0.41545,0.49081l-0.41046,0.49491l-0.40552,0.49892l-0.40038,0.50298l-0.39535,0.5069l-0.39018,0.5109l-0.38495,0.51473l-0.37968,0.5186l-0.37446,0.52247l-0.36905,0.52615l-0.36373,0.52993l-0.35828,0.53357l-0.35282,0.5372l-0.34736,0.54075l-0.34186,0.54429l-0.33631,0.54775l-0.33072,0.55115l-0.32512,0.55446l-0.31953,0.55782l-0.31388,0.56099l-0.30824,0.56421l-0.30255,0.56733l-0.29686,0.57031l-0.29117,0.57334l-0.28548,0.57628l-0.27975,0.57912l-0.27401,0.58192l-0.26832,0.58468l-0.26263,0.58733l-0.25815,0.59297l-0.14335,0.33617l-0.2478,0.59372l-0.24193,0.59606l-0.2361,0.59829l-0.23008,0.60053l-0.22416,0.60277l-0.2181,0.60487l-0.21203,0.60697l-0.20588,0.60902l-0.19977,0.61107l-0.19357,0.61294l-0.18737,0.61485l-0.18112,0.61672l-0.17482,0.61848l-0.16848,0.62021l-0.16219,0.62184l-0.1558,0.62352l-0.14945,0.62501l-0.14307,0.6265l-0.13663,0.62795l-0.1302,0.62935l-0.12381,0.63061l-0.11733,0.63192l-0.11094,0.63304l-0.10446,0.6342l-0.09802,0.63528l-0.09158,0.63625l-0.08511,0.63718l-0.07872,0.63807l-0.07233,0.63886l-0.06589,0.6398l-0.05946,0.64026l-0.05316,0.64073l-0.04677,0.64166l-0.04043,0.64166l-0.03414,0.64259l-0.02784,0.64306l-0.02159,0.64306l-0.01539,0.64353l-0.00919,0.64353l-0.00303,0.63326l0.00298,0.64353l0.00914,0.64353l0.01534,0.64353l0.02154,0.64306l0.0278,0.64259l0.03409,0.64259l0.04038,0.64166l0.04673,0.64166l0.05307,0.64073l0.05941,0.64026l0.06585,0.63933l0.07223,0.63886l0.07862,0.6384l0.08511,0.637l0.0915,0.63606l0.09797,0.63513l0.10441,0.6342l0.11084,0.63326l0.11728,0.63187l0.12372,0.63047l0.13015,0.62953l0.13659,0.62767l0.14302,0.62674l0.14936,0.62487l0.1558,0.62348l0.16209,0.62207l0.16848,0.62021l0.17478,0.61881l0.18108,0.61648l0.18728,0.61508l0.19357,0.61275l0.19973,0.61135l0.20588,0.60902l0.21199,0.60716l0.2181,0.60482l0.22407,0.60296l0.23013,0.60063l0.23605,0.59829l0.24198,0.59643l0.24361,0.58384l0.25344,0.5913l0.25918,0.58897l0.26487,0.58617l0.27061,0.58337l0.2763,0.58057l0.28203,0.57824l0.28772,0.57498l0.29346,0.57218l0.2991,0.56892l0.30483,0.56612l0.31048,0.56285l0.31612,0.55959l0.32177,0.55679l0.32736,0.55306l0.333,0.5498l0.3385,0.54607l0.34406,0.5428l0.34956,0.53954l0.35506,0.53581l0.36047,0.53207l0.36587,0.52834l0.37124,0.52461l0.37655,0.52088l0.38182,0.51715l0.38705,0.51342l0.39227,0.50922l0.3974,0.50549l0.40248,0.5013l0.40752,0.49757l0.41255,0.4929l0.4174,0.48917l0.42235,0.48544l0.42715,0.48078l0.43191,0.47658l0.43662,0.47285l0.44123,0.46819l0.44581,0.46399l0.45266,0.46213l0.25792,0.25974l0.45723,0.4528l0.46147,0.4486l0.46576,0.44394l0.47001,0.43928l0.4742,0.43461l0.4784,0.42995l0.48255,0.42528l0.4867,0.42016l0.49081,0.4155l0.49491,0.41037l0.49892,0.4057l0.50298,0.40011l0.50694,0.39544l0.51086,0.39031l0.51473,0.38472l0.51864,0.38006l0.52242,0.37446l0.5262,0.36886l0.52988,0.36373l0.53361,0.35814l0.53716,0.35301l0.5408,0.34741l0.54424,0.34182l0.54779,0.33622l0.5511,0.33062l0.55451,0.3255l0.55777,0.31943l0.56104,0.31383l0.56421,0.30824l0.56728,0.30265l0.57036,0.29658l0.57336,0.29145l0.57626,0.28539l0.57912,0.2798l0.58195,0.27373l0.58466,0.2686l0.58735,0.26254l0.59295,0.25834l0.33614,0.14316l0.59371,0.24762l0.59604,0.24202l0.5983,0.23596l0.60054,0.23037l0.60273,0.2243l0.6049,0.21778l0.60696,0.21218l0.60902,0.20612l0.61105,0.19959l0.61294,0.19352l0.61489,0.18746l0.61667,0.18093l0.61848,0.17487l0.62021,0.16834l0.62189,0.16228l0.62343,0.15575l0.62506,0.14969l0.6265,0.14316l0.62795,0.13663l0.62935,0.13011l0.63061,0.12358l0.63187,0.11752l0.63313,0.11099l0.63416,0.10446l0.63528,0.09793l0.63621,0.09187l0.63723,0.08487l0.63802,0.07881l0.63886,0.07228l0.63965,0.06575l0.64026,0.05969l0.64096,0.05316l0.64148,0.04663l0.64199,0.04057l0.64245,0.03404l0.64282,0.02798l0.64315,0.02145l0.64338,0.01539l0.64376,0.00932l0.63322,0.0028l0.64367,-0.0028l0.64348,-0.00932l0.64334,-0.01539l0.64306,-0.02145l0.64278,-0.02798l0.64231,-0.03404l0.64199,-0.0401l0.64138,-0.04663l0.64087,-0.05316l0.64026,-0.05969l0.63957,-0.06575l0.63882,-0.07228l0.63802,-0.07834l0.63714,-0.08534l0.63621,-0.0914l0.63528,-0.09793l0.6342,-0.10446l0.63304,-0.11099l0.63187,-0.11704l0.63061,-0.12404l0.62935,-0.13011l0.62795,-0.13663l0.62655,-0.14269l0.62506,-0.14969l0.62348,-0.15575l0.62189,-0.16181l0.62026,-0.16881l0.61853,-0.1744l0.61676,-0.1814l0.61489,-0.187l0.61303,-0.19352l0.61107,-0.20005l0.60911,-0.20565l0.60706,-0.21218l0.60496,-0.21778l0.60268,-0.2243l0.60063,-0.23037l0.59829,-0.23596l0.59643,-0.24202l0.58431,-0.24342l0.5913,-0.25368l0.58897,-0.25927l0.58617,-0.26487l0.58337,-0.27047l0.58057,-0.27607l0.57824,-0.28212l0.57498,-0.28772l0.57218,-0.29332l0.56892,-0.29938l0.56612,-0.30497l0.56285,-0.31011l0.55959,-0.31617l0.55632,-0.32177l0.55353,-0.32736l0.5498,-0.33295l0.54607,-0.33855l0.5428,-0.34414l0.53954,-0.34974l0.53581,-0.35487l0.53207,-0.36047l0.52834,-0.36606l0.52461,-0.37119l0.52088,-0.37633l0.51715,-0.38192l0.51342,-0.38705l0.50922,-0.39218l0.50549,-0.39777l0.5013,-0.40243l0.4971,-0.40757l0.49337,-0.41223l0.48917,-0.41782l0.48498,-0.42203l0.48125,-0.42715l0.47658,-0.43181l0.47285,-0.43694l0.46819,-0.44115l0.46399,-0.44581l0.46213,-0.4528l0.25927,-0.25741l0.4528,-0.45746l0.4486,-0.4612l0.44394,-0.46586l0.43928,-0.47005l0.43461,-0.47425l0.42995,-0.47845l0.42528,-0.48264l0.42016,-0.48637l0.4155,-0.49104l0.41037,-0.49477l0.4057,-0.49897l0.40057,-0.50317l0.39498,-0.5069l0.39031,-0.51063l0.38518,-0.51482l0.37959,-0.51855l0.37446,-0.52229l0.36886,-0.52648l0.36373,-0.52975l0.35814,-0.53347l0.35301,-0.5372l0.34741,-0.54093l0.34182,-0.5442l0.33622,-0.54793l0.33062,-0.55119l0.3255,-0.55446l0.31943,-0.55772l0.31383,-0.56099l0.30824,-0.56425l0.30265,-0.56705l0.29658,-0.57031l0.29145,-0.57358l0.28539,-0.57638l0.2798,-0.57917l0.27373,-0.58197l0.2686,-0.58431l0.26254,-0.58757l0.25788,-0.5927l0.14363,-0.33668l0.24762,-0.59363l0.24202,-0.59596l0.23596,-0.59829l0.23037,-0.60063l0.2243,-0.60296l0.21778,-0.60482l0.21218,-0.60669l0.20612,-0.60902l0.19959,-0.61135l0.19352,-0.61275l0.18746,-0.61508l0.18093,-0.61648l0.17487,-0.61835l0.16881,-0.62021l0.16181,-0.62207l0.15575,-0.62348l0.14969,-0.62487l0.14316,-0.62674l0.13663,-0.62767l0.13011,-0.62953l0.12358,-0.63047l0.11752,-0.63187l0.11099,-0.63326l0.10446,-0.6342l0.09793,-0.63513l0.09187,-0.63653l0.08487,-0.637l0.07881,-0.63793l0.07228,-0.63886l0.06575,-0.6398l0.05969,-0.64026l0.05316,-0.64073l0.04663,-0.64166l0.04057,-0.64213l0.03404,-0.64213l0.02798,-0.64306l0.02145,-0.64306l0.01539,-0.64353l0.00932,-0.64353l0.0028,-0.63326v-0.01492z"
					fill="#126da9"
					id="element-id-85179"
				></path>
			</g>
		</g>
	</g>
	<rect
		stroke-width="2"
		fill="transparent"
		class="invisible-element-box grouping-element"
		x="123"
		y="281"
		width="303"
		height="74"
	></rect>
	<rect
		stroke-width="2"
		fill="transparent"
		class="invisible-element-box grouping-element"
		x="208"
		y="115"
		width="135"
		height="135"
	></rect>
	<rect
		stroke-width="2"
		fill="transparent"
		class="invisible-element-box individual-element"
		x="208"
		y="115"
		width="135"
		height="135"
	></rect>
	<rect
		stroke-width="2"
		fill="transparent"
		class="invisible-element-box individual-element"
		x="244"
		y="293"
		width="40"
		height="62"
	></rect>
	<rect
		stroke-width="2"
		fill="transparent"
		class="invisible-element-box individual-element"
		x="123"
		y="284"
		width="41"
		height="50"
	></rect>
	<rect
		stroke-width="2"
		fill="transparent"
		class="invisible-element-box individual-element"
		x="166"
		y="283"
		width="38"
		height="52"
	></rect>
	<rect
		stroke-width="2"
		fill="transparent"
		class="invisible-element-box individual-element"
		x="356"
		y="283"
		width="38"
		height="52"
	></rect>
	<rect
		stroke-width="2"
		fill="transparent"
		class="invisible-element-box individual-element"
		x="203"
		y="297"
		width="43"
		height="37"
	></rect>
	<rect
		stroke-width="2"
		fill="transparent"
		class="invisible-element-box individual-element"
		x="286"
		y="297"
		width="43"
		height="37"
	></rect>
	<rect
		stroke-width="2"
		fill="transparent"
		class="invisible-element-box individual-element"
		x="331"
		y="281"
		width="24"
		height="53"
	></rect>
	<rect
		stroke-width="2"
		fill="transparent"
		class="invisible-element-box individual-element"
		x="393"
		y="298"
		width="34"
		height="37"
	></rect>
</svg>
