<svg width="16" height="16" viewBox="0 0 16 16" fill="none" xmlns="http://www.w3.org/2000/svg">
<path d="M4.46667 6.17334L8 8.22001L11.5067 6.18667" stroke="#64748B" stroke-width="1.5" stroke-linecap="round" stroke-linejoin="round"/>
<path d="M8 11.8467V8.21338" stroke="#64748B" stroke-width="1.5" stroke-linecap="round" stroke-linejoin="round"/>
<path d="M4.15332 6.86671C4.15332 6.31337 4.54664 5.64004 5.0333 5.37337L7.16665 4.1867C7.61998 3.93337 8.36664 3.93337 8.82664 4.1867L10.96 5.37337C11.44 5.64004 11.84 6.31337 11.84 6.86671V9.12671C11.84 9.68004 11.4466 10.3534 10.96 10.62L8.82664 11.8067C8.37331 12.06 7.62665 12.06 7.16665 11.8067L5.0333 10.62C4.7933 10.4867 4.57331 10.2534 4.41331 9.98004" stroke="#64748B" stroke-width="1.5" stroke-linecap="round" stroke-linejoin="round"/>
<path d="M14.6667 10C14.6667 12.58 12.58 14.6667 10 14.6667L10.7 13.5" stroke="#64748B" stroke-width="1.5" stroke-linecap="round" stroke-linejoin="round"/>
<path d="M1.33337 6.00004C1.33337 3.42004 3.42004 1.33337 6.00004 1.33337L5.30005 2.50004" stroke="#64748B" stroke-width="1.5" stroke-linecap="round" stroke-linejoin="round"/>
</svg>
